<svg version="1.1" id="svg6758" xmlns="http://www.w3.org/2000/svg" x="0" y="0" viewBox="0 0 2000 936.5" style="enable-background:new 0 0 2000 936.5" xml:space="preserve"><style>.st0{fill:#e60012}</style><g id="layer1" transform="translate(-398.571 -700.482)"><g id="g5598" transform="matrix(4.25245 0 0 -4.25245 426.906 839.407)"><path id="path5600" class="st0" d="M19.2-97.6H43c4.5 0 8.7-3.3 9-7.7h.2v18h-33v31.5H51c4.5 0 8.8-3.3 9-7.6h.2v18H-6.6v-.2c4.5-.2 7.9-5 7.9-9.5v-82.6c0-4.4-3.4-9.2-7.9-9.5v-.2H27v.2c-4.5.3-7.9 5-7.9 9.5l.1 40.1z"/></g><g id="g5602" transform="matrix(4.25245 0 0 -4.25245 499.928 863.105)"><path id="path5604" class="st0" d="M70.9-114.4c0-10.6 8.8-19.8 19.7-19.8 10.9 0 19.8 9.3 19.8 19.9v64.7c0 4.4-3.4 9.2-7.9 9.5v.2h33.7v-.2c-4.5-.2-7.9-5-7.9-9.5v-62.9c0-20.2-16.8-32-37.6-32s-37.8 11.8-37.8 32v62.9c0 4.4-3.4 9.2-7.9 9.5v.2h33.7v-.2c-4.5-.3-7.9-5-7.9-9.5l.1-64.8z"/></g><g id="g5606" transform="matrix(4.25245 0 0 -4.25245 791.72 801.679)"><path id="path5608" class="st0" d="M277.9-70.8c-5.7 9.1-18.5 8-18.5 8-21.1 0-20.1-16-20.1-16s-1.4-8 9.1-13.5l21.1-11.2c20.4-10.9 17.9-26.4 17.9-26.4s.9-28.9-41.7-28.9c0 0-12.4-.4-19.4 2.2l-6 18.7h.2c6.5-9.3 25.3-10.7 25.3-10.7 23.9 1 24.1 17.3 24.1 17.3s1.1 7-8.3 12l-21 11.2c-21.9 11.7-19.4 27.4-19.4 27.4s-.5 28.4 37.1 28.4c0 0 16.9-.4 19.6-3.1v-15.5z"/></g><g id="g5610" transform="matrix(4.25245 0 0 -4.25245 617.714 746.69)"><path id="path5612" class="st0" d="M154.5-31.8c3.7-3.7 8.9-5.9 14.6-5.9 11.5 0 20.7 9 20.7 20.2 0 11.1-9.3 20.2-20.7 20.2 0 0-16 1.5-23.2-18.4V-.8C151.2 6 159.5 11 169 11c16.2 0 29.3-12.7 29.3-28.4S185.2-45.8 169-45.8c-8.1 0-15.4 3.2-20.7 8.3l-10.1 11c-2.8 2.7-6.6 4.3-10.7 4.3-8.4 0-15.2-6.6-15.2-14.7 0-8.2 6.8-14.8 15.2-14.8 0 0 11.2-1.5 18.3 12v-11.9c-4.3-5.1-11-8.4-18.3-8.4-13.1 0-23.7 10.3-23.7 23.1 0 12.7 10.6 23 23.7 23 6.5 0 12.4-2.5 16.7-6.7l10.3-11.2z"/></g><g id="g5614" transform="matrix(4.25245 0 0 -4.25245 623.424 794.231)"><path id="path5616" class="st0" d="M158.5-65.5c0 4.5-3.4 9-7.9 9.2v.2h33.7v-.2c-4.5-.2-7.9-4.8-7.9-9.2v-82.7c0-4.4 3.4-9.2 7.9-9.5v-.2h-33.7v.2c4.5.3 7.9 5 7.9 9.5v82.7z"/></g><g id="g5618" transform="matrix(4.25245 0 0 -4.25245 601.049 794.46)"><path id="path5620" class="st0" d="M142.7-65.7c0 4.4 3.4 9.2 7.9 9.5v.2h-33.7v-.2c4.5-.2 7.9-5 7.9-9.5v-103.4s-.4-18.3-15.1-28.8v-.2c2.9.5 33 6 33 35.1v97.3z"/></g><g id="g5622" transform="matrix(4.25245 0 0 -4.25245 650.575 803.645)"><path id="path5624" class="st0" d="M177.8-72.2h.2c4.6 7.9 11.6 8 11.6 8h18.2v-81.9c0-4.4-3.4-9.2-7.9-9.4v-.2h33.7v.2c-4.5.3-7.9 5-7.9 9.4v81.9h15.2c4.6 0 8.3-3.6 8.4-8.1h.2l5.6 18.4h-71.9l-5.4-18.3z"/></g><g id="g5626" transform="matrix(4.25245 0 0 -4.25245 828.405 863.105)"><path id="path5628" class="st0" d="M303.9-114.4c0-10.6 8.8-19.8 19.7-19.8 10.9 0 19.8 9.3 19.8 19.9v64.7c0 4.4-3.4 9.2-7.9 9.5v.2h33.7v-.2c-4.5-.2-7.9-5-7.9-9.5v-62.9c0-20.2-16.8-32-37.6-32s-37.8 11.8-37.8 32v62.9c0 4.4-3.4 9.2-7.9 9.5v.2h33.7v-.2c-4.5-.3-7.9-5-7.9-9.5l.1-64.8z"/></g></g></svg>