<svg version="1.1" id="Layer_1" xmlns="http://www.w3.org/2000/svg" x="0" y="0" viewBox="0 0 2000 304.7" style="enable-background:new 0 0 2000 304.7" xml:space="preserve"><style>.st0{fill:red}</style><g id="g3"><g id="g5"><path id="path7" class="st0" d="M1913.6 299.5h86.4L1910.9 5.3h-122.8L1699 299.4h86.4l15.8-54.4h96.6l15.8 54.5m-93.8-119.9L1849.2 78h.5l29.4 101.6h-59.3z"/><path id="path9" class="st0" d="M431.2 304.7c88.7 0 131.6-15.6 137.6-95.7 1.5-19 1.7-38.6 1.7-56.7s-.3-37.6-1.7-56.7c-6-80-48.9-95.6-137.6-95.6S299.6 15.6 293.6 95.7c-1.5 19-1.8 38.6-1.8 56.7s.3 37.7 1.8 56.7c6 80 48.9 95.6 137.6 95.6m-55.8-152.4c0-16.2.4-25.7.8-32.8 2.3-45.4 20.2-50.7 55-50.7 34.9 0 52.8 5.3 55 50.7.4 7.1.8 16.6.8 32.8 0 16.2-.4 25.8-.8 32.8-2.2 45.4-20.1 50.7-55 50.7s-52.8-5.3-55-50.7c-.4-7-.8-16.6-.8-32.8z"/><path id="polyline11" class="st0" d="M0 5.4v73.4h87.9v220.8h88V78.8h87.9V5.4H0"/><path id="polyline13" class="st0" d="M1349.6 299.5V5.3h-83.4v294.2h83.4"/><path id="polyline15" class="st0" d="M1013.8 112.7V5.3h-83v294.2h83V186h96.4v113.5h83V5.3h-83v107.4h-96.4"/><g id="g17"><path id="path19" class="st0" d="M1624.2 145.7c37-9.5 47.8-31.5 47.8-63.5 0-64.6-40.7-77-98.5-77h-149.9v294.2h157.3c72.4 0 96.8-31.2 96.8-79.2 0-33.4-7.7-62.9-53.5-74.5m-117.6 32.9h57.6c23.2 0 28.1 10.2 28.1 26.8s-9.1 26.8-28.1 26.8h-57.6v-53.6zm0-106h57.6c15 0 24.3 7.1 24.3 24.3 0 14.7-9.2 23.7-24.3 23.7h-57.6v-48z"/><path id="path21" class="st0" d="M619 202.9h79.1c.1 14.3 1.9 23.8 8.8 29.1 7.9 5.9 14.9 7.9 38.3 7.9 22.5 0 47.1 0 47.1-27.7 0-21.9-13.8-26.8-39.2-28.2-63-3.3-85.8-5.1-109.3-22.6-16-11.9-24.3-35-24.3-66.4 0-53.2 18.6-71.9 45.4-85 27.7-13.5 136.2-13.5 165.4 0 36.7 17 37.8 53.7 37.8 87.6h-78.9c-.1-17.3-4-22.2-7.2-25.4-8.2-7.3-19.9-8.8-36.7-8.8-20.4 0-44 .9-44 25.7 0 18.9 8.2 26.8 29.6 28.2 29.5 1.9 87.5 3.7 108.2 16 29 17.2 36.6 40.4 36.6 78.3 0 54.8-19.6 70.8-46.9 82.9-31.5 13.9-136.6 13.9-170.8-1.1-38.3-16.7-39.1-50-39-90.5"/></g></g></g></svg>