<svg id="圖層_1" data-name="圖層 1" xmlns="http://www.w3.org/2000/svg" viewBox="0 0 157.13 39.23"><defs><style>.cls-1{fill:#ea0029;}</style></defs><path class="cls-1" d="M990.93,534c-.61-2.46-5.93-2.46-11.6-2.46H957.74q-7.35,14.44-14.72,28.89h11.81c1.69-3.29,3.38-6.58,5.07-9.9h9.3c9.19,0,14.34,0,17.71-6.59.78-1.52,1.55-3.07,2.36-4.62C990.21,537.42,991.29,535.32,990.93,534Zm-10.55,6.53c-.25.48-.5,1-.72,1.42-1,2-2.57,2-5.37,2h-11c1-1.91,2-3.85,2.93-5.79,3.74,0,7.45,0,11.18,0,1.72,0,3.33,0,3.52.75A2.86,2.86,0,0,1,980.38,540.49Z" transform="translate(-881.74 -521.17)"/><path class="cls-1" d="M1002,548.88q-2.44,4.82,3.32,4.82h9.22l2.49-4.9h-7.47l2.49-4.9h15.28c-2.8,5.51-5.6,11-8.39,16.49l-20.29,0c-4.18,0-7.06-.75-8.61-2.24a4.58,4.58,0,0,1-1.41-3.49,12.91,12.91,0,0,1,1.72-5.76l4.65-9.13a15.65,15.65,0,0,1,5.42-6.26c2.16-1.35,5.18-2,9-2h24.25c-1.14,2.21-2.25,4.4-3.38,6.61-6.37,0-12.76,0-19.13-.05a6,6,0,0,0-3.12.69,5.06,5.06,0,0,0-1.83,2.1Q1004,544.89,1002,548.88Z" transform="translate(-881.74 -521.17)"/><path class="cls-1" d="M892,524.69q8.24,9,16.48,18.07c-8.93,6-17.82,11.81-26.71,17.63h18.19c2-1.82,9-7,14.7-10.86l9.9,10.86h13.61l-32.31-35.7Z" transform="translate(-881.74 -521.17)"/><path class="cls-1" d="M1038.87,521.17H984.94c-29.83.17-44.59,2-65.05,14.07q2.82,3.13,5.63,6.28c28.82-20.91,45.21-17.36,112.47-18.63Z" transform="translate(-881.74 -521.17)"/></svg>